FILE "Championship Soccer '94 (1994)(Sensible Software - Sony)(US).img" BINARY
  TRACK 01 MODE1/2352
    INDEX 01 00:00:00
  TRACK 02 AUDIO
    PREGAP 00:02:00
    INDEX 01 02:33:25
  TRACK 03 AUDIO
    INDEX 00 02:37:25
    INDEX 01 02:39:25
  TRACK 04 AUDIO
    INDEX 00 02:51:06
    INDEX 01 02:53:06
  TRACK 05 AUDIO
    INDEX 00 03:05:39
    INDEX 01 03:07:39
  TRACK 06 AUDIO
    INDEX 00 03:37:73
    INDEX 01 03:39:73
  TRACK 07 AUDIO
    INDEX 00 03:54:47
    INDEX 01 03:56:47
  TRACK 08 AUDIO
    INDEX 00 04:11:21
    INDEX 01 04:13:21
  TRACK 09 AUDIO
    INDEX 00 04:23:46
    INDEX 01 04:25:46
  TRACK 10 AUDIO
    INDEX 00 04:40:20
    INDEX 01 04:42:20
  TRACK 11 AUDIO
    INDEX 00 05:00:11
    INDEX 01 05:02:11
  TRACK 12 AUDIO
    INDEX 00 05:15:00
    INDEX 01 05:17:00
  TRACK 13 AUDIO
    INDEX 00 05:31:46
    INDEX 01 05:33:46
  TRACK 14 AUDIO
    INDEX 01 05:49:41
  TRACK 15 AUDIO
    INDEX 00 06:06:27
    INDEX 01 06:08:27
  TRACK 16 AUDIO
    INDEX 00 06:21:16
    INDEX 01 06:23:16
  TRACK 17 AUDIO
    INDEX 00 06:37:62
    INDEX 01 06:39:62
  TRACK 18 AUDIO
    INDEX 00 06:52:46
    INDEX 01 06:54:46
  TRACK 19 AUDIO
    INDEX 00 07:07:35
    INDEX 01 07:09:35
  TRACK 20 AUDIO
    INDEX 00 07:22:24
    INDEX 01 07:24:24
  TRACK 21 AUDIO
    INDEX 00 07:38:70
    INDEX 01 07:40:70
  TRACK 22 AUDIO
    INDEX 00 07:52:27
    INDEX 01 07:54:27
  TRACK 23 AUDIO
    INDEX 00 08:06:09
    INDEX 01 08:08:09
  TRACK 24 AUDIO
    INDEX 00 08:18:35
    INDEX 01 08:20:35
  TRACK 25 AUDIO
    INDEX 00 08:35:06
    INDEX 01 08:37:06
  TRACK 26 AUDIO
    INDEX 00 08:49:65
    INDEX 01 08:51:65
  TRACK 27 AUDIO
    INDEX 00 09:02:41
    INDEX 01 09:04:41
  TRACK 28 AUDIO
    INDEX 00 09:14:67
    INDEX 01 09:16:67
  TRACK 29 AUDIO
    INDEX 00 09:31:38
    INDEX 01 09:33:38
  TRACK 30 AUDIO
    INDEX 00 09:44:70
    INDEX 01 09:46:70
  TRACK 31 AUDIO
    INDEX 00 10:11:22
    INDEX 01 10:13:22
  TRACK 32 AUDIO
    INDEX 00 10:26:06
    INDEX 01 10:28:06
  TRACK 33 AUDIO
    INDEX 00 10:42:52
    INDEX 01 10:44:52
  TRACK 34 AUDIO
    INDEX 00 10:56:36
    INDEX 01 10:58:36
  TRACK 35 AUDIO
    INDEX 00 11:09:40
    INDEX 01 11:11:40
  TRACK 36 AUDIO
    INDEX 00 11:19:52
    INDEX 01 11:21:52
  TRACK 37 AUDIO
    INDEX 00 11:36:23
    INDEX 01 11:38:23
  TRACK 38 AUDIO
    INDEX 00 11:50:07
    INDEX 01 11:52:07
  TRACK 39 AUDIO
    INDEX 00 12:05:73
    INDEX 01 12:07:73
  TRACK 40 AUDIO
    INDEX 00 12:16:10
    INDEX 01 12:18:10
  TRACK 41 AUDIO
    INDEX 00 12:32:56
    INDEX 01 12:34:56
  TRACK 42 AUDIO
    INDEX 00 12:46:12
    INDEX 01 12:48:12
  TRACK 43 AUDIO
    INDEX 00 12:56:24
    INDEX 01 12:58:24
  TRACK 44 AUDIO
    INDEX 00 13:06:36
    INDEX 01 13:08:36
  TRACK 45 AUDIO
    INDEX 00 13:23:07
    INDEX 01 13:25:07
  TRACK 46 AUDIO
    INDEX 00 13:39:02
    INDEX 01 13:41:02
  TRACK 47 AUDIO
    INDEX 00 13:55:19
    INDEX 01 13:57:19
  TRACK 48 AUDIO
    INDEX 00 14:05:31
    INDEX 01 14:07:31
  TRACK 49 AUDIO
    INDEX 00 14:22:02
    INDEX 01 14:24:02
  TRACK 50 AUDIO
    INDEX 00 14:36:61
    INDEX 01 14:38:61
  TRACK 51 AUDIO
    INDEX 00 14:46:73
    INDEX 01 14:48:73
  TRACK 52 AUDIO
    INDEX 00 14:57:10
    INDEX 01 14:59:10
  TRACK 53 AUDIO
    INDEX 00 15:13:56
    INDEX 01 15:15:56
  TRACK 54 AUDIO
    INDEX 00 15:27:13
    INDEX 01 15:29:13
  TRACK 55 AUDIO
    INDEX 00 15:37:25
    INDEX 01 15:39:25
  TRACK 56 AUDIO
    INDEX 00 15:50:56
    INDEX 01 15:52:56
  TRACK 57 AUDIO
    INDEX 00 16:07:27
    INDEX 01 16:09:27
  TRACK 58 AUDIO
    INDEX 00 16:21:11
    INDEX 01 16:23:11
  TRACK 59 AUDIO
    INDEX 00 16:52:67
    INDEX 01 16:54:67
  TRACK 60 AUDIO
    INDEX 00 17:07:56
    INDEX 01 17:09:56
  TRACK 61 AUDIO
    INDEX 00 17:27:44
    INDEX 01 17:29:44
  TRACK 62 AUDIO
    INDEX 00 17:41:00
    INDEX 01 17:43:00
  TRACK 63 AUDIO
    INDEX 00 17:55:37
    INDEX 01 17:57:37
  TRACK 64 AUDIO
    INDEX 00 18:07:63
    INDEX 01 18:09:63
  TRACK 65 AUDIO
    INDEX 00 18:27:51
    INDEX 01 18:29:51
  TRACK 66 AUDIO
    INDEX 00 18:43:46
    INDEX 01 18:45:46
  TRACK 67 AUDIO
    INDEX 00 18:55:69
    INDEX 01 18:57:69
  TRACK 68 AUDIO
    INDEX 00 19:10:53
    INDEX 01 19:12:53
  TRACK 69 AUDIO
    INDEX 00 19:30:41
    INDEX 01 19:32:41
  TRACK 70 AUDIO
    INDEX 00 19:43:73
    INDEX 01 19:45:73
  TRACK 71 AUDIO
    INDEX 00 19:55:68
    INDEX 01 19:57:68
  TRACK 72 AUDIO
    INDEX 00 20:06:05
    INDEX 01 20:08:05
  TRACK 73 AUDIO
    INDEX 00 20:25:68
    INDEX 01 20:27:68
  TRACK 74 AUDIO
    INDEX 00 20:40:52
    INDEX 01 20:42:52
  TRACK 75 AUDIO
    INDEX 00 21:00:69
    INDEX 01 21:02:69
  TRACK 76 AUDIO
    INDEX 00 21:11:06
    INDEX 01 21:13:06
  TRACK 77 AUDIO
    INDEX 00 21:30:69
    INDEX 01 21:32:69
  TRACK 78 AUDIO
    INDEX 00 21:44:53
    INDEX 01 21:46:53
  TRACK 79 AUDIO
    INDEX 00 21:54:65
    INDEX 01 21:56:65
  TRACK 80 AUDIO
    INDEX 00 22:05:02
    INDEX 01 22:07:02
  TRACK 81 AUDIO
    INDEX 00 22:24:65
    INDEX 01 22:26:65
  TRACK 82 AUDIO
    INDEX 00 22:38:21
    INDEX 01 22:40:21
  TRACK 83 AUDIO
    INDEX 00 22:52:26
    INDEX 01 22:54:26
  TRACK 84 AUDIO
    INDEX 00 23:02:38
    INDEX 01 23:04:38
  TRACK 85 AUDIO
    INDEX 00 23:22:26
    INDEX 01 23:24:26
  TRACK 86 AUDIO
    INDEX 00 23:38:21
    INDEX 01 23:40:21
  TRACK 87 AUDIO
    INDEX 00 23:50:68
    INDEX 01 23:52:68
  TRACK 88 AUDIO
    INDEX 00 24:01:05
    INDEX 01 24:03:05
  TRACK 89 AUDIO
    INDEX 00 24:20:68
    INDEX 01 24:22:68
  TRACK 90 AUDIO
    INDEX 00 24:35:52
    INDEX 01 24:37:52
  TRACK 91 AUDIO
    INDEX 00 24:54:08
    INDEX 01 24:56:08
  TRACK 92 AUDIO
    INDEX 00 25:07:39
    INDEX 01 25:09:39
  TRACK 93 AUDIO
    INDEX 00 25:27:27
    INDEX 01 25:29:27
  TRACK 94 AUDIO
    INDEX 00 25:38:52
    INDEX 01 25:40:52
  TRACK 95 AUDIO
    INDEX 00 28:43:02
    INDEX 01 28:45:02
